<svg xmlns="http://www.w3.org/2000/svg" width="64" height="64" viewBox="0 0 64 64" shape-rendering="crispEdges">
  <defs>
    <linearGradient id="roof" x1="0" y1="0" x2="0" y2="1">
      <stop offset="0" stop-color="#9f6f46"/>
      <stop offset="1" stop-color="#6d4a31"/>
    </linearGradient>
    <linearGradient id="wall" x1="0" y1="0" x2="0" y2="1">
      <stop offset="0" stop-color="#8d6a4d"/>
      <stop offset="1" stop-color="#6b4f3b"/>
    </linearGradient>
  </defs>
  <rect width="64" height="64" fill="none"/>
  <rect x="8" y="24" width="48" height="28" rx="2" fill="url(#wall)" stroke="#332217" stroke-width="2"/>
  <path d="M6 28 L32 10 L58 28" fill="url(#roof)" stroke="#3a2618" stroke-width="3" stroke-linejoin="round"/>
  <rect x="13" y="29" width="8" height="18" fill="#d3b88e" stroke="#4b3324" stroke-width="2"/>
  <rect x="43" y="29" width="8" height="18" fill="#d3b88e" stroke="#4b3324" stroke-width="2"/>
  <rect x="26" y="33" width="12" height="19" fill="#4d3426" stroke="#26170f" stroke-width="2"/>
  <rect x="29" y="37" width="6" height="15" fill="#8f6848"/>
  <rect x="23" y="24" width="18" height="6" fill="#cda15f" stroke="#6c4b2e" stroke-width="2"/>
  <rect x="11" y="20" width="6" height="8" fill="#5d4030"/>
  <rect x="47" y="20" width="6" height="8" fill="#5d4030"/>
  <path d="M18 42 L29 31" stroke="#e6d6b0" stroke-width="3" stroke-linecap="round"/>
  <path d="M38 32 L47 41" stroke="#e6d6b0" stroke-width="3" stroke-linecap="round"/>
  <rect x="12" y="52" width="40" height="4" fill="#3a2618" opacity="0.45"/>
  <rect x="21" y="38" width="4" height="4" fill="#31c8b6" opacity="0.85"/>
  <rect x="39" y="38" width="4" height="4" fill="#31c8b6" opacity="0.85"/>
</svg>